<svg width="20" height="20" viewBox="0 0 20 20" fill="none" xmlns="http://www.w3.org/2000/svg"><path d="M18.93 5.908l-3-3.6a.3.3 0 00-.23-.108H4.3a.3.3 0 00-.23.108l-3 3.6a.3.3 0 00.23.492h17.4a.3.3 0 00.23-.492zM1.94 5.8l2.5-3h11.12l2.5 3H1.94z" fill="#1292F0" stroke="#1292F0"/><path d="M10.286 17.41l-3.6-11.4A.3.3 0 006.4 5.8H1.3a.3.3 0 00-.238.482l8.7 11.4a.3.3 0 00.524-.273zM1.906 6.4H6.18l3.017 9.553L1.907 6.4z" fill="#1292F0" stroke="#1292F0"/><path d="M18.97 5.967a.3.3 0 00-.27-.167h-5.1a.3.3 0 00-.286.21l-3.6 11.4a.3.3 0 00.525.272l8.7-11.4a.3.3 0 00.03-.315zm-8.167 9.986L13.82 6.4h4.274l-7.29 9.553z" fill="#1292F0" stroke="#1292F0"/></svg>