<svg width="21" height="20" viewBox="0 0 21 20" fill="none" xmlns="http://www.w3.org/2000/svg"><path d="M.938 16.5h1.975v-5.708h5.561V9.098h-5.56V5.109h6.142v-1.7H.938V16.5zm17.687-9.652h1.905c-.058-2.097-1.911-3.618-4.57-3.618-2.628 0-4.641 1.502-4.641 3.759 0 1.821 1.304 2.889 3.407 3.458l1.547.422c1.4.37 2.48.83 2.48 1.994 0 1.278-1.221 2.122-2.902 2.122-1.522 0-2.787-.678-2.902-2.103h-1.982c.128 2.372 1.963 3.835 4.897 3.835 3.074 0 4.845-1.617 4.845-3.835 0-2.359-2.103-3.273-3.765-3.682l-1.278-.332c-1.023-.262-2.385-.742-2.378-1.994 0-1.113 1.016-1.937 2.627-1.937 1.502 0 2.57.703 2.71 1.911z" fill="#1292F0"/></svg>