<svg width="20" height="20" viewBox="0 0 20 20" fill="none" xmlns="http://www.w3.org/2000/svg"><path d="M11.795 2.621l.304.231.38-.03 2.248-.178.772 2.119.131.358.336.18 1.988 1.067-.496 2.2-.084.372.185.333 1.096 1.971-1.607 1.583-.271.268-.025.38-.144 2.25-2.207.464-.373.078-.227.307-1.338 1.816-2.106-.804L10 17.45l-.356.136-2.107.804-1.338-1.816-.227-.307-.373-.078-2.207-.463-.144-2.25-.024-.381-.272-.268-1.607-1.583 1.096-1.97.185-.334-.084-.372-.496-2.2 1.988-1.066.336-.18.13-.359.773-2.119 2.248.178.38.03.304-.23L10 1.255l1.795 1.365z" stroke="#1292F0" stroke-width="2"/></svg>